PathFileType	4	(X/Y/Z)	OpenSim_Sub04_EMGBaseline_Accel.trc
DataRate	CameraRate	NumFrames	NumMarkers	Units	OrigDataRate	OrigDataStartFrame	OrigNumFrames
100	100	34	8	m	100	2978	7941
Frame#	Time	torso_imu_offset_imu	pelvis_imu_offset_imu	tibia_r_imu_offset_imu	femur_r_imu_offset_imu	tibia_l_imu_offset_imu	femur_l_imu_offset_imu	toes_r_imu_offset_imu	toes_l_imu_offset_imu
				X1	Y1	Z1	X2	Y2	Z2	X3	Y3	Z3	X4	Y4	Z4	X5	Y5	Z5	X6	Y6	Z6	X7	Y7	Z7	X8		Y8	Z8	

2978	29.77000000	-8.97259580	0.13225837	8.63493952	9.35179723	0.32830455	4.05600371	6.95326089	7.40703184	-0.37022767	9.41621495	0.01326612	1.42324800	11.62796718	-1.39388371	2.25455409	11.06978965	0.61299647	-0.35921472	6.02750499	-2.32340452	7.43883704	6.63156973	4.85940815	12.05354453
2979	29.78000000	-8.71168028	0.15263940	8.22126416	9.02859131	0.20108590	4.15702480	7.15427622	6.95185924	0.37281716	9.43482630	0.54106490	0.89532132	11.54996320	-0.96733927	1.17381662	10.88721628	0.23170661	-0.03726056	6.52491508	-2.09644240	7.74489913	8.18429787	3.35527011	10.85099612
2980	29.79000000	-8.39891580	0.23720502	8.00213568	8.81895697	0.26334055	4.32759563	7.77125974	5.84994336	0.84828674	8.94557133	0.72302052	0.21022199	11.59762237	-0.76950824	0.00429908	10.41826479	-0.10179138	-0.12644191	6.54447735	-1.89646304	7.82784469	11.07727592	2.41107914	10.24812361
2981	29.80000000	-8.08851252	0.31921500	7.82772077	8.67965748	0.36334552	4.43179389	8.62114723	4.63769091	0.81687375	8.44004749	0.66029280	-0.43944856	11.42622954	-1.11794722	-0.28445851	9.67718691	-0.21435174	-0.39625298	6.04758364	-2.12235940	7.89528352	10.66974301	5.16140302	11.12064766
2982	29.81000000	-7.67894742	0.48493354	7.45386540	8.51572433	0.35429501	4.46704510	9.60161249	3.83840597	0.54499785	8.08371680	-0.05213333	-0.96726455	10.83671194	-2.20153566	-0.42110747	9.12828962	-0.05393537	-0.54137408	6.04513926	-2.21609330	7.83199472	8.71914355	6.85952350	11.27356880
2983	29.82000000	-7.35320536	0.52130467	7.35089111	8.35381653	0.52546342	4.37381908	10.49223959	3.40035787	0.50664242	8.17430502	-1.37301185	-1.19521873	10.14025017	-3.39210457	-0.88954257	8.84528558	0.22692788	-0.69111905	5.97253904	-2.05105766	7.80577442	10.72626946	6.14295556	11.74786871
2984	29.83000000	-7.09706236	0.58433360	7.33413222	8.27730490	0.63285498	4.29021011	10.80974827	3.00434236	0.55102394	8.62855355	-2.64781148	-1.29577147	9.53011331	-4.36128068	-1.19298858	8.75690359	0.29952309	-0.82421158	6.12479236	-1.85102808	7.82589382	11.06711281	5.80999255	10.90660804
2985	29.84000000	-6.92604604	0.75667295	7.24079870	8.12948557	0.82192216	4.29077374	10.35505321	2.63381061	0.52648681	9.09274986	-3.87842773	-1.39002112	8.78311935	-5.41907441	-1.19011290	8.88383013	0.29679277	-0.90813228	5.76843100	-1.87554469	7.92253344	11.38450173	4.46594675	9.21349162
2986	29.85000000	-6.93825175	0.87597415	7.33603871	8.09576225	1.07891345	4.28542834	9.68328173	2.38320003	0.51266300	9.57810182	-4.94136651	-1.42189258	7.93166579	-6.47510898	-1.54413639	9.05567423	0.44975919	-0.94587831	5.73783759	-1.91902404	8.00593673	11.17153857	4.52356739	9.23492407
2987	29.86000000	-7.06534157	0.98580791	7.49644124	8.16738222	1.42372118	4.34250699	9.32360963	2.35045745	0.40304834	9.73459495	-5.54649662	-1.36291647	7.18249554	-7.28486590	-2.61961629	9.06510266	0.50136578	-0.99186259	5.83378757	-1.95031455	7.92935071	8.75183353	2.36058964	7.18354267
2988	29.87000000	-7.20666184	1.01799257	7.62212372	8.37909370	1.73509248	4.40278417	9.26652303	2.19417110	0.18185408	9.14978649	-5.68427920	-1.29611286	6.43544775	-7.90668742	-3.09368554	8.94076436	0.58042677	-0.88331543	6.08183680	-1.92654355	7.62901618	6.65939314	6.47779814	7.38386183
2989	29.88000000	-7.32186924	1.07049166	7.86016326	8.67021420	1.90479055	4.32305292	9.34661993	2.02842064	0.23264918	8.10610014	-5.32256583	-1.09118584	5.78248765	-7.41958919	-3.12139243	8.94018151	0.78063506	-0.61642998	5.98210119	-1.95002407	7.82236306	2.92811448	17.38648790	20.31807931
2990	29.89000000	-7.38395127	1.15454083	7.98912670	8.95711011	2.04856075	4.27496068	9.39679708	1.74088620	0.50055396	7.31773758	-4.57507850	-0.74914336	5.11936149	-6.28265575	-3.16236777	9.23693111	0.94886857	-0.38032231	6.05041650	-1.98098236	7.84992441	12.07359644	16.98292316	20.35037162
2991	29.90000000	-7.43806965	1.25962395	8.13867880	9.22346645	2.04379988	4.14306866	9.47532068	1.48356879	0.66008136	7.29127706	-3.52664982	-0.42862833	4.41632861	-5.33812401	-2.21862631	9.92508640	0.90211133	-0.63687800	6.11425841	-1.72523511	7.91915022	-5.78445271	9.20947020	14.52563586
2992	29.91000000	-7.53717005	1.28271915	8.41171728	9.45259659	1.88398054	4.02007173	9.48423419	1.74141147	0.35398694	7.86846251	-2.64333315	-0.28397052	4.23038310	-4.95556323	-1.24623195	10.54939067	0.72384017	-0.83028016	6.11869065	-1.57659320	7.96977075	-2.58694557	7.51111055	13.21922267
2993	29.92000000	-7.49675872	1.34252113	8.58369603	9.42375576	1.57309633	3.82119260	9.58411964	2.32363657	0.78588409	8.54085278	-2.11305414	-0.34524598	4.26089145	-4.43661713	-0.25639119	10.91602204	0.35895938	-0.81637477	6.17057264	-1.38056716	7.87082840	-0.40886455	4.38899998	13.34308573
2994	29.93000000	-7.20271765	1.31092079	8.58297428	9.22633178	1.29355792	3.70197075	9.68678793	2.86875230	1.01841046	9.05172894	-1.76855237	-0.46156853	3.95512240	-4.64873676	0.61805495	10.67849159	0.07931188	-0.70473593	5.66836857	-1.46165971	8.07205307	0.67405153	4.46013507	13.62595750
2995	29.94000000	-7.07557807	1.30992124	8.66408744	8.93020097	1.11777123	3.68166771	9.74987130	3.32515706	1.02990347	9.31331127	-1.55688948	-0.53206999	3.61152867	-5.74618424	0.77677127	10.24999554	-0.00015619	-0.49846669	5.61366508	-1.31513816	8.21246202	0.26270396	4.55909458	13.16495720
2996	29.95000000	-7.24425117	1.27984110	8.75875050	8.72633285	0.90936643	3.79062284	9.75490980	3.38633075	1.49350851	9.42911275	-1.41231532	-0.55680370	3.63116386	-6.95248586	0.52003262	9.90284711	0.31677370	-0.34230130	5.67439728	-1.21339289	8.29315458	0.13962672	4.50465705	12.81681342
2997	29.96000000	-7.36982576	1.13395083	8.89401542	8.60891485	0.80993272	3.78051802	9.61907284	3.24249633	1.32641456	9.47807794	-1.37694588	-0.53834716	3.56840219	-7.67346772	0.18809146	9.88838222	0.70555543	-0.15532899	5.78108346	-1.15719915	8.04881778	0.78336337	3.95769617	12.46750674
2998	29.97000000	-7.33034959	1.08625837	9.02254302	8.64246931	0.80994479	3.73510126	9.50058875	3.39161155	1.33740878	9.43325910	-1.38338532	-0.48392296	3.42219677	-8.10159541	-0.09422337	9.92996416	1.12660941	-0.13176452	5.68603478	-1.07755075	8.18041083	2.26817796	3.14961540	12.23612700
2999	29.98000000	-7.26065172	0.96826467	9.05915214	8.73510857	0.78924963	3.61170362	9.45478691	3.62908426	1.04609615	9.40833065	-1.59593184	-0.34747964	3.37390830	-7.99046686	-0.09295702	9.89911432	1.59989615	-0.06861978	5.65478643	-0.78228335	8.45723504	2.82906346	2.26641020	11.64915563
3000	29.99000000	-7.14038633	0.93452605	9.06041096	8.86170504	0.81871897	3.52952876	9.54066201	3.85357768	1.12681540	9.44131825	-1.84217459	-0.10417430	3.38086729	-7.71647998	-0.12005708	9.84060978	1.92182345	0.04676176	5.46687624	-1.03572684	8.37825358	2.47736008	1.78314645	11.07636889
3001	30	-7.08221753	0.95098029	9.05961673	9.08455156	0.97175058	3.40481036	9.66038237	4.12875540	1.11964992	9.44743562	-2.06113841	0.02525105	3.49956217	-7.62924457	-0.04178468	9.74040132	2.11711665	0.04551255	5.49926611	-1.19758252	8.30568228	2.33563029	1.72857107	10.72341387
3002	30.01000000	-7.06508407	0.91088331	8.98874257	9.20653677	1.12991596	3.29593240	9.56629783	4.21539559	0.87752786	9.32716847	-2.27890692	0.05963537	3.65761956	-7.52896317	0.25248379	9.61177369	2.04353270	0.07859926	5.68720721	-1.00946789	8.15743664	3.13850601	2.07660003	10.93588725
3003	30.02000000	-7.09859499	0.83814497	8.95670057	9.32448782	1.31800914	3.24406262	9.36731708	4.12304109	0.96278076	9.13922940	-2.38996963	-0.04100845	3.90631206	-7.22005915	0.51016046	9.31222394	2.09906975	0.16693191	5.50214589	-1.18917399	8.23805916	4.63900323	2.44505908	11.40481102
3004	30.03000000	-7.05340359	0.78851508	8.94586362	9.35576150	1.52407928	3.21029006	9.18967066	4.04973183	0.71572937	8.88507013	-2.21036324	-0.17961296	4.22053828	-6.48072895	0.58144912	9.18070712	1.82565763	0.21498229	5.62104228	-1.10748762	8.18013753	6.22299772	2.61207830	11.62481302
3005	30.04000000	-6.96675809	0.71935792	8.88448364	9.36204049	1.56041599	3.15677742	9.15472841	3.92452253	0.60525311	8.67777716	-2.33081095	-0.47845343	4.61546728	-5.39134264	0.80900642	8.95580290	1.46900418	0.19842526	5.69051798	-0.97282546	8.15035691	7.25729023	3.01193007	11.65841211
3006	30.05000000	-6.81909927	0.65099898	8.87693814	9.35356966	1.65895372	3.13310354	9.23381378	3.86704112	0.78048898	8.68633476	-2.28992074	-0.80492679	5.33993549	-4.50840138	1.30393990	8.68120748	1.36138124	0.00609377	5.88048036	-1.07217418	7.89909072	7.87470485	3.36426730	11.82353812
3007	30.06000000	-6.78457617	0.65366154	8.91421068	9.32377703	1.74610867	3.10392389	9.40638607	3.55392600	0.55827919	8.78322904	-2.35324438	-1.02260047	6.54271530	-4.23743407	1.75831125	8.50651254	1.08503326	-0.13453935	5.55600654	-0.89428886	8.19672035	8.18548181	3.45883949	12.00760241
3008	30.07000000	-6.92803461	0.66287078	8.98622656	9.31309430	1.89787750	3.06755831	9.54388635	3.24543461	0.70182982	8.95964927	-2.27414216	-1.02300160	8.07845299	-4.51954008	1.79315269	8.44089885	0.79533347	-0.21191463	5.40926488	-1.14505212	8.21905076	9.07134720	3.30536103	12.72135968
3009	30.08000000	-6.97495911	0.67152199	8.95814449	9.25668518	2.00261236	2.96531318	9.63222232	2.91593623	0.72109010	9.08225433	-2.27708273	-0.97312570	9.16592582	-4.89744884	1.23823334	8.24884034	0.91506181	-0.17343735	5.48517158	-1.05974498	8.22571383	11.09487267	2.73532694	13.68637289
3010	30.09000000	-6.93702649	0.66430072	8.99031989	9.23196027	2.11760329	2.91075132	9.62399930	2.71219837	0.64244608	9.18130983	-2.24028600	-0.91718135	9.62586546	-4.91727924	0.87894305	8.09054993	1.05772235	0.03818330	5.61441997	-1.06182012	8.13725113	13.27052668	3.67595550	14.44530993
3011	30.10000000	-6.96760882	0.68324855	8.99221119	9.10476292	2.22348599	2.88750549	9.73427483	2.41149068	0.69690832	9.18259539	-2.21568943	-0.78281337	10.02263756	-4.60798887	1.30138678	7.99849324	1.51192391	0.22874117	5.86242580	-0.93097300	8.07009861	13.28158634	5.75264757	14.03181457
